<?xml version="1.0" encoding="iso-8859-1"?>
<!-- Generator: Adobe Illustrator 19.0.0, SVG Export Plug-In . SVG Version: 6.00 Build 0)  -->
<svg xmlns="http://www.w3.org/2000/svg" xmlns:xlink="http://www.w3.org/1999/xlink" version="1.1" id="Capa_1" x="0px" y="0px" viewBox="0 0 512 512" style="enable-background:new 0 0 512 512;" xml:space="preserve" width="512px" height="512px">
<g>
	<g>
		<path d="M298.885,372.957C309.746,361.839,316,346.795,316,331c0-33.084-26.916-60-60-60c-33.084,0-60,26.916-60,60    c0,15.795,6.254,30.839,17.115,41.957l-16.575,60.052c-1.246,4.514-0.312,9.352,2.525,13.078S206.317,452,211,452h90    c4.683,0,9.098-2.187,11.935-5.913c2.837-3.726,3.771-8.563,2.525-13.078L298.885,372.957z M267.442,371.793L281.299,422H230.7    l13.857-50.207c1.684-6.101-0.643-12.603-5.816-16.25C230.764,349.918,226,340.743,226,331c0-16.542,13.458-30,30-30    s30,13.458,30,30c0,9.743-4.764,18.918-12.742,24.543C268.085,359.191,265.758,365.692,267.442,371.793z" fill="#FFFFFF"/>
	</g>
</g>
<g>
	<g>
		<path d="M406,211v-61C406,67.29,338.71,0,256,0S106,67.29,106,150v61c-24.813,0-45,20.187-45,45v211c0,24.813,20.187,45,45,45h300    c24.813,0,45-20.187,45-45V256C451,231.187,430.813,211,406,211z M136,150c0-66.168,53.832-120,120-120s120,53.832,120,120v61h-30    v-61c0-49.626-40.374-90-90-90c-49.626,0-90,40.374-90,90v61h-30V150z M316,150v61H196v-61c0-33.084,26.916-60,60-60    S316,116.916,316,150z M421,467c0,8.271-6.729,15-15,15H106c-8.271,0-15-6.729-15-15V256c0-8.271,6.729-15,15-15h300    c8.271,0,15,6.729,15,15V467z" fill="#FFFFFF"/>
	</g>
</g>
<g>
</g>
<g>
</g>
<g>
</g>
<g>
</g>
<g>
</g>
<g>
</g>
<g>
</g>
<g>
</g>
<g>
</g>
<g>
</g>
<g>
</g>
<g>
</g>
<g>
</g>
<g>
</g>
<g>
</g>
</svg>
